<?xml version="1.0" encoding="UTF-8" standalone="no"?>
<svg width="64" height="64" viewBox="0 0 64 64" fill="none" xmlns="http://www.w3.org/2000/svg">
  <rect width="64" height="64" rx="8" fill="#0079BF"/>
  <g transform="translate(8,8) scale(0.75)">
    <path d="M48 13H28C26.8954 13 26 13.8954 26 15V35C26 36.1046 26.8954 37 28 37H48C49.1046 37 50 36.1046 50 35V15C50 13.8954 49.1046 13 48 13Z" fill="#FFFFFF"/>
    <path d="M22 13H2C0.895431 13 0 13.8954 0 15V35C0 36.1046 0.895431 37 2 37H22C23.1046 37 24 36.1046 24 35V15C24 13.8954 23.1046 13 22 13Z" fill="#FFFFFF"/>
    <path d="M22 39H2C0.895431 39 0 39.8954 0 41V61C0 62.1046 0.895431 63 2 63H22C23.1046 63 24 62.1046 24 61V41C24 39.8954 23.1046 39 22 39Z" fill="#FFFFFF"/>
    <path d="M48 39H28C26.8954 39 26 39.8954 26 41V61C26 62.1046 26.8954 63 28 63H48C49.1046 63 50 62.1046 50 61V41C50 39.8954 49.1046 39 48 39Z" fill="#FFFFFF"/>
  </g>
</svg>
